Coordinates
version=1
nRows=20
nColumns=38
inDegrees=no

Units are S.I. units (second, meters, Newtons, ...)
If the header above contains a line with 'inDegrees', this indicates whether rotational values are in degrees (yes) or radians (no).

endheader
time	pelvis_tilt	pelvis_list	pelvis_rotation	pelvis_tx	pelvis_ty	pelvis_tz	hip_flexion_r	hip_adduction_r	hip_rotation_r	knee_angle_r	ankle_angle_r	subtalar_angle_r	mtp_angle_r	hip_flexion_l	hip_adduction_l	hip_rotation_l	knee_angle_l	ankle_angle_l	subtalar_angle_l	mtp_angle_l	lumbar_extension	lumbar_bending	lumbar_rotation	arm_flex_r	arm_add_r	arm_rot_r	elbow_flex_r	pro_sup_r	wrist_flex_r	wrist_dev_r	arm_flex_l	arm_add_l	arm_rot_l	elbow_flex_l	pro_sup_l	wrist_flex_l	wrist_dev_l
0.77	3.04026	1.43897	-1.28588	0.689599	0.0830542	0.932161	0.318169	-0.0692823	-0.19693	0.357062	-0.191186	0	0	-0.32165	-0.00808875	-0.131842	0.230754	-0.0930613	0	0	-0.374728	0.110023	-0.0660243	-0.193157	-0.523341	0.44925	0.811032	0.877224	0	0	-0.0812925	-0.141076	-0.0504443	0.550987	1.5708	0	0
0.78	3.04124	1.43814	-1.28451	0.689511	0.0921957	0.931264	0.317418	-0.0668881	-0.202236	0.373293	-0.190624	0	0	-0.328713	-0.0119316	-0.132116	0.239921	-0.0871987	0	0	-0.376881	0.112522	-0.0549099	-0.22408	-0.503807	0.368197	0.818783	0.942907	0	0	-0.0730015	-0.141831	-0.0337339	0.545048	1.5708	0	0
0.79	3.04421	1.43839	-1.28495	0.689448	0.101572	0.930344	0.320899	-0.0662951	-0.210513	0.404241	-0.187087	0	0	-0.334398	-0.0154176	-0.132518	0.249592	-0.0856249	0	0	-0.375749	0.113659	-0.0677883	-0.20905	-0.515942	0.411232	0.817968	0.909705	0	0	-0.0840912	-0.139149	-0.051594	0.552991	1.5708	0	0
0.8	2.99634	1.43318	-1.23461	0.688955	0.110268	0.931052	0.383292	-0.0968565	-0.325711	0.618765	-0.161494	0	0	-0.342784	-0.0263146	-0.131027	0.257939	-0.0895513	0	0	-0.38145	0.125066	-0.0644046	-0.211228	-0.51504	0.399895	0.815644	0.92328	0	0	-0.0743259	-0.134701	-0.0464953	0.537637	1.5708	0	0
0.81	2.9918	1.43336	-1.22603	0.688889	0.120031	0.930363	0.379084	-0.0936185	-0.326924	0.629877	-0.162759	0	0	-0.347676	-0.0317211	-0.130578	0.268605	-0.0902316	0	0	-0.379249	0.12762	-0.0693073	-0.211735	-0.516319	0.404646	0.815412	0.919529	0	0	-0.0778086	-0.134636	-0.0472702	0.537474	1.5708	0	0
0.82	2.97941	1.43283	-1.20882	0.688783	0.129961	0.929939	0.375567	-0.0896601	-0.326392	0.641087	-0.165412	0	0	-0.352055	-0.0392825	-0.132189	0.281438	-0.0919763	0	0	-0.377305	0.131758	-0.0749627	-0.211924	-0.517756	0.409804	0.814833	0.91637	0	0	-0.0810247	-0.134027	-0.0490112	0.53623	1.5708	0	0
0.83	2.96042	1.43307	-1.18496	0.688714	0.140096	0.929618	0.374141	-0.0860101	-0.326905	0.650968	-0.174143	0	0	-0.354804	-0.0477221	-0.134694	0.295325	-0.0951586	0	0	-0.373985	0.136502	-0.0805307	-0.212819	-0.5188	0.413968	0.814051	0.913978	0	0	-0.0841883	-0.132677	-0.052109	0.534295	1.5708	0	0
0.84	2.93736	1.43385	-1.15678	0.68865	0.150459	0.92938	0.372863	-0.082367	-0.329054	0.65905	-0.187077	0	0	-0.355919	-0.056911	-0.137965	0.311113	-0.0998265	0	0	-0.369446	0.141596	-0.0862745	-0.214907	-0.519476	0.416697	0.813716	0.911856	0	0	-0.0879824	-0.131323	-0.0553882	0.532612	1.5708	0	0
0.85	2.90842	1.43424	-1.12252	0.688622	0.161031	0.929332	0.368875	-0.0764075	-0.327371	0.662545	-0.20175	0	0	-0.356171	-0.0675113	-0.141675	0.328455	-0.1062	0	0	-0.364446	0.147396	-0.0918739	-0.217417	-0.519719	0.418774	0.812996	0.909918	0	0	-0.0922746	-0.1301	-0.0585523	0.531033	1.5708	0	0
0.86	2.87408	1.43439	-1.08357	0.688751	0.171848	0.929396	0.363456	-0.0690236	-0.324995	0.664377	-0.216384	0	0	-0.355424	-0.0792066	-0.146054	0.347257	-0.114331	0	0	-0.358825	0.153371	-0.0968324	-0.220453	-0.519674	0.420309	0.812177	0.908205	0	0	-0.0972914	-0.129059	-0.0616813	0.52984	1.5708	0	0
0.87	2.83778	1.43442	-1.04365	0.689075	0.182927	0.929539	0.357337	-0.06118	-0.323594	0.66644	-0.229103	0	0	-0.353791	-0.0911807	-0.149688	0.367358	-0.124368	0	0	-0.352597	0.158839	-0.101013	-0.223529	-0.519157	0.42229	0.810471	0.907278	0	0	-0.103064	-0.128556	-0.0643111	0.529017	1.5708	0	0
0.88	2.82128	1.44406	-1.02601	0.689921	0.194725	0.928164	0.307228	-0.022137	-0.213653	0.5193	-0.259444	0	0	-0.342685	-0.0959679	-0.15467	0.393559	-0.138036	0	0	-0.337143	0.155287	-0.0921962	-0.258833	-0.494391	0.343289	0.813546	0.983372	0	0	-0.105657	-0.132941	-0.0474514	0.52826	1.5708	0	0
0.89	2.75323	1.43497	-0.955949	0.690327	0.205653	0.929922	0.348171	-0.0439098	-0.320571	0.674545	-0.25184	0	0	-0.344718	-0.115344	-0.153447	0.414638	-0.160376	0	0	-0.337993	0.168974	-0.106327	-0.231251	-0.516751	0.422759	0.806495	0.915352	0	0	-0.115574	-0.12791	-0.0704661	0.526519	1.5708	0	0
0.9	2.72143	1.44498	-0.926555	0.691568	0.217615	0.928707	0.303887	-0.00381044	-0.208569	0.541739	-0.259719	0	0	-0.329796	-0.118898	-0.151206	0.444302	-0.181102	0	0	-0.320594	0.164472	-0.106799	-0.241742	-0.513699	0.41723	0.807731	0.921021	0	0	-0.127656	-0.130359	-0.0717299	0.531994	1.5708	0	0
0.91	2.67361	1.44348	-0.88097	0.692678	0.229161	0.929304	0.299931	0.0072878	-0.206767	0.550863	-0.2541	0	0	-0.323169	-0.129427	-0.14112	0.471154	-0.199601	0	0	-0.314414	0.169358	-0.104302	-0.247698	-0.51262	0.414813	0.807186	0.923826	0	0	-0.13314	-0.130673	-0.0718246	0.530697	1.5708	0	0
0.92	2.62409	1.42984	-0.833665	0.693711	0.240332	0.931733	0.327731	-0.00601327	-0.305103	0.67723	-0.248085	0	0	-0.324327	-0.147761	-0.127452	0.498213	-0.228726	0	0	-0.320157	0.183607	-0.0980251	-0.250199	-0.512494	0.412467	0.80489	0.928471	0	0	-0.13198	-0.128938	-0.0704058	0.523086	1.5708	0	0
0.93	2.59456	1.43658	-0.811327	0.695505	0.252184	0.931284	0.281149	0.033451	-0.20162	0.550966	-0.250176	0	0	-0.306997	-0.148067	-0.108939	0.535531	-0.254407	0	0	-0.307293	0.178813	-0.0931222	-0.260076	-0.509647	0.406155	0.807133	0.93527	0	0	-0.143921	-0.131396	-0.0718035	0.531422	1.5708	0	0
0.94	2.56337	1.42459	-0.784362	0.696859	0.26335	0.93355	0.309979	0.0193164	-0.288288	0.680963	-0.236988	0	0	-0.30236	-0.162161	-0.0852812	0.570765	-0.283521	0	0	-0.312091	0.189659	-0.0857147	-0.263374	-0.510369	0.405021	0.807353	0.936435	0	0	-0.145339	-0.130137	-0.0721789	0.528984	1.5708	0	0
0.95	2.55818	1.42183	-0.783729	0.698371	0.274973	0.934345	0.293693	0.0299953	-0.276708	0.676706	-0.227684	0	0	-0.290449	-0.165884	-0.0542088	0.611642	-0.306892	0	0	-0.309375	0.190216	-0.0819486	-0.270179	-0.511685	0.406379	0.812306	0.933619	0	0	-0.155331	-0.131628	-0.0747753	0.537452	1.5708	0	0
0.96	2.55795	1.41791	-0.788772	0.699817	0.286354	0.935289	0.27387	0.0394473	-0.273923	0.668473	-0.218579	0	0	-0.277416	-0.168222	-0.0193166	0.656064	-0.336623	0	0	-0.309056	0.191062	-0.0778931	-0.275564	-0.513582	0.40871	0.817537	0.930781	0	0	-0.165172	-0.132904	-0.0776436	0.54705	1.5708	0	0
